<svg xmlns="http://www.w3.org/2000/svg" aria-hidden="true" style="position:absolute;width:0;height:0;overflow:hidden"><defs><symbol id="icon-redo" viewBox="0 0 32 32"><path d="M31.239 0h-3.008a.762.762 0 0 0-.761.798l.254 5.255A15.695 15.695 0 0 0 15.737.508C7.066.508-.005 7.589.001 16.266.007 24.957 7.05 32 15.737 32a15.673 15.673 0 0 0 10.544-4.058.763.763 0 0 0 .031-1.107l-2.157-2.159a.76.76 0 0 0-1.039-.035c-4.63 4.076-11.687 3.625-15.761-1.008S3.732 11.939 8.363 7.862 20.05 4.237 24.124 8.87c.319.363.615.747.884 1.148l-6.442-.309a.762.762 0 0 0-.797.725l-.001.037v3.01c0 .421.341.762.761.762H31.24c.42 0 .761-.341.761-.762V.761a.762.762 0 0 0-.761-.762z"/></symbol><symbol id="icon-x" viewBox="0 0 32 32"><path d="M27.257 1.21a2.4 2.4 0 0 0-3.394 0L16 9.073 8.137 1.21a2.4 2.4 0 0 0-3.394 0L1.21 4.743a2.4 2.4 0 0 0 0 3.394L9.073 16 1.21 23.863a2.4 2.4 0 0 0 0 3.394l3.533 3.533a2.4 2.4 0 0 0 3.394 0L16 22.927l7.863 7.863a2.4 2.4 0 0 0 3.394 0l3.533-3.533a2.4 2.4 0 0 0 0-3.394L22.927 16l7.863-7.863a2.4 2.4 0 0 0 0-3.394L27.257 1.21z"/></symbol><symbol id="icon-o" viewBox="0 0 32 32"><path d="M31.97 15.871C31.97 7.106 24.864 0 16.099 0S.228 7.106.228 15.871s7.106 15.871 15.871 15.871S31.97 24.636 31.97 15.871zm-22.336 0a6.466 6.466 0 1 1 12.932 0 6.466 6.466 0 0 1-12.932 0z"/></symbol></defs></svg>